{
	"asset":{
		"generator":"Khronos glTF Blender I/O v3.6.27",
		"version":"2.0"
	},
	"scene":0,
	"scenes":[
		{
			"name":"Scene",
			"nodes":[
				0
			]
		}
	],
	"nodes":[
		{
			"mesh":0,
			"name":"\u0421\u0444\u0435\u0440\u0430"
		}
	],
	"materials":[
		{
			"doubleSided":true,
			"name":"\u041c\u0430\u0442\u0435\u0440\u0438\u0430\u043b.031",
			"pbrMetallicRoughness":{
				"baseColorFactor":[
					0.4109380543231964,
					0.38704249262809753,
					0.38704249262809753,
					1
				],
				"metallicFactor":0,
				"roughnessFactor":0.5
			}
		}
	],
	"meshes":[
		{
			"name":"\u0421\u0444\u0435\u0440\u0430.003",
			"primitives":[
				{
					"attributes":{
						"POSITION":0,
						"NORMAL":1,
						"TEXCOORD_0":2
					},
					"indices":3,
					"material":0
				}
			]
		}
	],
	"accessors":[
		{
			"bufferView":0,
			"componentType":5126,
			"count":5079,
			"max":[
				1.5532392263412476,
				0.9975767135620117,
				0.9935945868492126
			],
			"min":[
				-0.993594229221344,
				0,
				-0.9935950040817261
			],
			"type":"VEC3"
		},
		{
			"bufferView":1,
			"componentType":5126,
			"count":5079,
			"type":"VEC3"
		},
		{
			"bufferView":2,
			"componentType":5126,
			"count":5079,
			"type":"VEC2"
		},
		{
			"bufferView":3,
			"componentType":5123,
			"count":7524,
			"type":"SCALAR"
		}
	],
	"bufferViews":[
		{
			"buffer":0,
			"byteLength":60948,
			"byteOffset":0,
			"target":34962
		},
		{
			"buffer":0,
			"byteLength":60948,
			"byteOffset":60948,
			"target":34962
		},
		{
			"buffer":0,
			"byteLength":40632,
			"byteOffset":121896,
			"target":34962
		},
		{
			"buffer":0,
			"byteLength":15048,
			"byteOffset":162528,
			"target":34963
		}
	],
	"buffers":[
		{
			"byteLength":177576,
			"uri":"data:application/octet-stream;base64,"
		}
	]
}
