{
	"asset":{
		"generator":"Khronos glTF Blender I/O v3.6.27",
		"version":"2.0"
	},
	"scene":0,
	"scenes":[
		{
			"name":"Scene",
			"nodes":[
				0,
				1,
				2
			]
		}
	],
	"nodes":[
		{
			"mesh":0,
			"name":"Eyes Shield V2",
			"rotation":[
				-1,
				0,
				0,
				1.7478846739112444e-14
			],
			"scale":[
				0.1353275179862976,
				0.1353275179862976,
				0.1353275179862976
			],
			"translation":[
				-9.756850242614746,
				0,
				0
			]
		},
		{
			"mesh":1,
			"name":"\u041a\u0443\u0431",
			"rotation":[
				0,
				0,
				-0.058838412165641785,
				0.9982675313949585
			],
			"scale":[
				0.09979075193405151,
				1,
				1
			],
			"translation":[
				-0.9874385595321655,
				-2.975144863128662,
				2.8287227153778076
			]
		},
		{
			"mesh":2,
			"name":"\u041a\u0443\u0431.001",
			"rotation":[
				0,
				0,
				0.9982675313949585,
				0.058838412165641785
			],
			"scale":[
				-0.09979074448347092,
				-1,
				-1
			],
			"translation":[
				-0.9874385595321655,
				-2.975144863128662,
				-2.8518011569976807
			]
		}
	],
	"materials":[
		{
			"doubleSided":true,
			"name":"\u041c\u0430\u0442\u0435\u0440\u0438\u0430\u043b.001",
			"pbrMetallicRoughness":{
				"baseColorFactor":[
					0.05221778154373169,
					0.05221778154373169,
					0.05221778154373169,
					1
				],
				"metallicFactor":0,
				"roughnessFactor":0.5
			}
		},
		{
			"doubleSided":true,
			"name":"\u041c\u0430\u0442\u0435\u0440\u0438\u0430\u043b.002",
			"pbrMetallicRoughness":{}
		},
		{
			"doubleSided":true,
			"name":"\u041c\u0430\u0442\u0435\u0440\u0438\u0430\u043b.003",
			"pbrMetallicRoughness":{}
		}
	],
	"meshes":[
		{
			"name":"Eyes Shield V2",
			"primitives":[
				{
					"attributes":{
						"POSITION":0,
						"NORMAL":1
					},
					"indices":2,
					"material":0
				}
			]
		},
		{
			"name":"\u041a\u0443\u0431.001",
			"primitives":[
				{
					"attributes":{
						"POSITION":3,
						"NORMAL":4,
						"TEXCOORD_0":5
					},
					"indices":6,
					"material":1
				}
			]
		},
		{
			"name":"\u041a\u0443\u0431.002",
			"primitives":[
				{
					"attributes":{
						"POSITION":7,
						"NORMAL":8,
						"TEXCOORD_0":9
					},
					"indices":6,
					"material":2
				}
			]
		}
	],
	"accessors":[
		{
			"bufferView":0,
			"componentType":5126,
			"count":35821,
			"max":[
				77.45500183105469,
				44.44499969482422,
				79.02400207519531
			],
			"min":[
				-77.45500183105469,
				-4.0932144826366645e-13,
				-79.02400207519531
			],
			"type":"VEC3"
		},
		{
			"bufferView":1,
			"componentType":5126,
			"count":35821,
			"type":"VEC3"
		},
		{
			"bufferView":2,
			"componentType":5123,
			"count":37515,
			"type":"SCALAR"
		},
		{
			"bufferView":3,
			"componentType":5126,
			"count":59,
			"max":[
				1,
				2.8114655017852783,
				4.39465856552124
			],
			"min":[
				-13.954214096069336,
				-2.0629427433013916,
				-2.2302513122558594
			],
			"type":"VEC3"
		},
		{
			"bufferView":4,
			"componentType":5126,
			"count":59,
			"type":"VEC3"
		},
		{
			"bufferView":5,
			"componentType":5126,
			"count":59,
			"type":"VEC2"
		},
		{
			"bufferView":6,
			"componentType":5123,
			"count":240,
			"type":"SCALAR"
		},
		{
			"bufferView":7,
			"componentType":5126,
			"count":59,
			"max":[
				1,
				2.8114655017852783,
				4.39465856552124
			],
			"min":[
				-13.954214096069336,
				-2.0629427433013916,
				-2.2302513122558594
			],
			"type":"VEC3"
		},
		{
			"bufferView":8,
			"componentType":5126,
			"count":59,
			"type":"VEC3"
		},
		{
			"bufferView":9,
			"componentType":5126,
			"count":59,
			"type":"VEC2"
		}
	],
	"bufferViews":[
		{
			"buffer":0,
			"byteLength":429852,
			"byteOffset":0,
			"target":34962
		},
		{
			"buffer":0,
			"byteLength":429852,
			"byteOffset":429852,
			"target":34962
		},
		{
			"buffer":0,
			"byteLength":75030,
			"byteOffset":859704,
			"target":34963
		},
		{
			"buffer":0,
			"byteLength":708,
			"byteOffset":934736,
			"target":34962
		},
		{
			"buffer":0,
			"byteLength":708,
			"byteOffset":935444,
			"target":34962
		},
		{
			"buffer":0,
			"byteLength":472,
			"byteOffset":936152,
			"target":34962
		},
		{
			"buffer":0,
			"byteLength":480,
			"byteOffset":936624,
			"target":34963
		},
		{
			"buffer":0,
			"byteLength":708,
			"byteOffset":937104,
			"target":34962
		},
		{
			"buffer":0,
			"byteLength":708,
			"byteOffset":937812,
			"target":34962
		},
		{
			"buffer":0,
			"byteLength":472,
			"byteOffset":938520,
			"target":34962
		}
	],
	"buffers":[
		{
			"byteLength":938992,
			"uri":"data:application/octet-stream;base64,"
		}
	]
}
