{
	"asset":{
		"generator":"Khronos glTF Blender I/O v3.6.27",
		"version":"2.0"
	},
	"scene":0,
	"scenes":[
		{
			"name":"Scene",
			"nodes":[
				0
			]
		}
	],
	"nodes":[
		{
			"mesh":0,
			"name":"\u0426\u0438\u043b\u0438\u043d\u0434\u0440"
		}
	],
	"materials":[
		{
			"doubleSided":true,
			"name":"\u041c\u0430\u0442\u0435\u0440\u0438\u0430\u043b",
			"pbrMetallicRoughness":{
				"baseColorFactor":[
					0.800000011920929,
					0.800000011920929,
					0.800000011920929,
					1
				],
				"metallicFactor":0,
				"roughnessFactor":0.5
			}
		}
	],
	"meshes":[
		{
			"name":"\u0426\u0438\u043b\u0438\u043d\u0434\u0440",
			"primitives":[
				{
					"attributes":{
						"POSITION":0,
						"NORMAL":1,
						"TEXCOORD_0":2
					},
					"indices":3,
					"material":0
				}
			]
		}
	],
	"accessors":[
		{
			"bufferView":0,
			"componentType":5126,
			"count":714,
			"max":[
				1,
				0.5526530146598816,
				1
			],
			"min":[
				-1,
				-1,
				-1
			],
			"type":"VEC3"
		},
		{
			"bufferView":1,
			"componentType":5126,
			"count":714,
			"type":"VEC3"
		},
		{
			"bufferView":2,
			"componentType":5126,
			"count":714,
			"type":"VEC2"
		},
		{
			"bufferView":3,
			"componentType":5123,
			"count":1908,
			"type":"SCALAR"
		}
	],
	"bufferViews":[
		{
			"buffer":0,
			"byteLength":8568,
			"byteOffset":0,
			"target":34962
		},
		{
			"buffer":0,
			"byteLength":8568,
			"byteOffset":8568,
			"target":34962
		},
		{
			"buffer":0,
			"byteLength":5712,
			"byteOffset":17136,
			"target":34962
		},
		{
			"buffer":0,
			"byteLength":3816,
			"byteOffset":22848,
			"target":34963
		}
	],
	"buffers":[
		{
			"byteLength":26664,
			"uri":"data:application/octet-stream;base64,"
		}
	]
}
